M48
; DRILL file {KiCad 9.0.7-9.0.7~ubuntu24.04.1} date 2026-02-02T16:30:03+0100
; FORMAT={-:-/ absolute / metric / decimal}
; #@! TF.CreationDate,2026-02-02T16:30:03+01:00
; #@! TF.GenerationSoftware,Kicad,Pcbnew,9.0.7-9.0.7~ubuntu24.04.1
; #@! TF.FileFunction,Plated,1,2,PTH
FMAT,2
METRIC
; #@! TA.AperFunction,Plated,PTH,ViaDrill
T1C0.300
; #@! TA.AperFunction,Plated,PTH,ComponentDrill
T2C0.750
; #@! TA.AperFunction,Plated,PTH,ComponentDrill
T3C0.800
; #@! TA.AperFunction,Plated,PTH,ComponentDrill
T4C1.000
; #@! TA.AperFunction,Plated,PTH,ComponentDrill
T5C1.020
; #@! TA.AperFunction,Plated,PTH,ComponentDrill
T6C1.100
%
G90
G05
T1
X124.127Y-90.484
X130.258Y-86.317
X136.0Y-65.842
X141.693Y-126.144
X142.138Y-116.332
X155.583Y-116.163
X161.453Y-117.606
X174.111Y-78.696
X177.058Y-75.986
T2
X185.09Y-54.28
X185.09Y-55.55
X185.09Y-56.82
T3
X103.632Y-65.71
X103.632Y-75.87
X104.14Y-126.71
X104.14Y-131.71
X109.22Y-55.92
X109.22Y-60.92
X109.22Y-123.21
X109.22Y-125.21
X109.22Y-127.21
X109.22Y-129.21
X116.55Y-87.3
X116.84Y-126.75
X116.84Y-131.75
X116.92Y-106.35
X117.034Y-139.37
X121.55Y-87.3
X121.92Y-106.35
X121.92Y-123.21
X121.92Y-125.21
X121.92Y-127.21
X121.92Y-129.21
X122.034Y-139.37
X133.604Y-119.42
X133.604Y-124.42
X140.208Y-62.484
X140.208Y-70.104
X140.208Y-77.724
X140.208Y-85.344
X143.256Y-91.948
X143.256Y-102.108
X144.272Y-107.736
X144.272Y-112.736
X149.86Y-62.484
X149.86Y-67.484
X150.368Y-77.724
X150.368Y-85.344
X166.04Y-102.54
X166.04Y-107.62
X166.04Y-117.78
X166.116Y-122.174
X166.116Y-129.794
X168.58Y-56.86
X168.58Y-61.86
X169.207Y-91.15
X169.207Y-96.15
X169.93Y-113.97
X172.47Y-124.13
X174.93Y-113.97
X176.2Y-55.55
X176.2Y-65.71
X176.2Y-102.54
X176.24Y-93.65
X177.47Y-124.13
X178.74Y-106.35
X178.74Y-116.51
X180.01Y-55.55
X180.01Y-65.71
X181.24Y-93.65
X182.118Y-104.688
X182.118Y-109.688
X182.88Y-74.6
X182.88Y-84.76
X183.82Y-124.13
X183.82Y-130.48
X185.13Y-103.81
X186.36Y-136.83
X190.13Y-103.81
X190.13Y-108.93
X190.13Y-113.93
X191.44Y-54.28
X191.44Y-64.44
X191.44Y-75.91
X191.44Y-80.91
X193.98Y-124.13
X193.98Y-130.48
X193.98Y-136.83
X195.25Y-59.36
X195.25Y-64.36
T4
X109.22Y-110.16
X111.76Y-110.16
X113.284Y-59.182
X113.284Y-61.722
X113.284Y-64.262
X113.284Y-66.802
X113.284Y-69.342
X113.284Y-71.882
X114.3Y-91.11
X114.3Y-110.16
X116.84Y-91.11
X116.84Y-110.16
X116.84Y-144.45
X119.38Y-91.11
X119.38Y-110.16
X119.38Y-144.45
X121.92Y-91.11
X121.92Y-110.16
X121.92Y-144.45
X124.46Y-64.44
X124.46Y-66.98
X124.46Y-69.52
X124.46Y-72.06
X137.668Y-119.38
X137.668Y-121.92
X138.684Y-108.971
X138.684Y-111.511
X140.208Y-119.38
X140.208Y-121.92
X142.748Y-119.38
X142.748Y-121.92
X145.288Y-119.38
X145.288Y-121.92
X147.828Y-119.38
X147.828Y-121.92
X150.368Y-119.38
X150.368Y-121.92
X152.908Y-119.38
X152.908Y-121.92
X155.448Y-119.38
X155.448Y-121.92
X157.988Y-119.38
X157.988Y-121.92
X164.77Y-56.82
X164.77Y-59.36
X164.77Y-61.9
X164.77Y-64.44
X164.77Y-66.98
X164.77Y-69.52
X164.77Y-88.57
X164.77Y-91.11
X164.77Y-93.65
X164.77Y-96.19
X176.276Y-81.28
X176.276Y-83.82
X191.44Y-143.18
X193.98Y-87.3
X193.98Y-89.84
X193.98Y-94.92
X193.98Y-97.46
X193.98Y-143.18
T5
X134.0Y-60.0
X134.0Y-62.54
X134.0Y-65.08
X134.0Y-67.62
X134.0Y-70.16
X134.0Y-72.7
X134.0Y-75.24
X134.0Y-77.78
X134.0Y-80.32
X134.0Y-82.86
X134.0Y-85.4
X134.0Y-87.94
X134.0Y-90.48
X134.0Y-93.02
X134.0Y-95.56
X134.0Y-98.1
X134.0Y-100.64
X134.0Y-103.18
X134.0Y-105.72
X134.0Y-108.26
X134.0Y-110.8
X134.0Y-113.34
X159.43Y-59.97
X159.43Y-62.51
X159.43Y-65.05
X159.43Y-67.59
X159.43Y-70.13
X159.43Y-72.67
X159.43Y-75.21
X159.43Y-77.75
X159.43Y-80.29
X159.43Y-82.83
X159.43Y-85.37
X159.43Y-87.91
X159.43Y-90.45
X159.43Y-92.99
X159.43Y-95.53
X159.43Y-98.07
X159.43Y-100.61
X159.43Y-103.15
X159.43Y-105.69
X159.43Y-108.23
X159.43Y-110.77
X159.43Y-113.31
T6
X105.156Y-55.88
X105.156Y-58.42
X105.156Y-60.96
X149.352Y-108.29
X151.892Y-108.29
X154.432Y-108.29
X185.41Y-63.17
X185.41Y-65.71
X185.41Y-68.25
T4
G00X176.47Y-134.005
M15
G01X178.47Y-134.005
M16
G05
G00X176.47Y-140.005
M15
G01X178.47Y-140.005
M16
G05
G00X182.17Y-138.005
M15
G01X182.17Y-136.005
M16
G05
M30
