%TF.GenerationSoftware,KiCad,Pcbnew,9.0.7-9.0.7~ubuntu24.04.1*%
%TF.CreationDate,2026-02-02T16:30:08+01:00*%
%TF.ProjectId,Main,4d61696e-2e6b-4696-9361-645f70636258,rev?*%
%TF.SameCoordinates,Original*%
%TF.FileFunction,Legend,Bot*%
%TF.FilePolarity,Positive*%
%FSLAX46Y46*%
G04 Gerber Fmt 4.6, Leading zero omitted, Abs format (unit mm)*
G04 Created by KiCad (PCBNEW 9.0.7-9.0.7~ubuntu24.04.1) date 2026-02-02 16:30:08*
%MOMM*%
%LPD*%
G01*
G04 APERTURE LIST*
%ADD10C,0.200000*%
%ADD11C,0.300000*%
%ADD12C,0.150000*%
%ADD13C,0.100000*%
%ADD14C,0.120000*%
G04 APERTURE END LIST*
D10*
X131826000Y-117780000D02*
X161544000Y-117780000D01*
X161544000Y-148260000D01*
X131826000Y-148260000D01*
X131826000Y-117780000D01*
X136144000Y-87376000D02*
X157988000Y-87376000D01*
X157988000Y-114554000D01*
X136144000Y-114554000D01*
X136144000Y-87376000D01*
D11*
X149019774Y-127510828D02*
X148734060Y-127510828D01*
X148734060Y-127510828D02*
X148591203Y-127582257D01*
X148591203Y-127582257D02*
X148448346Y-127725114D01*
X148448346Y-127725114D02*
X148376917Y-128010828D01*
X148376917Y-128010828D02*
X148376917Y-128510828D01*
X148376917Y-128510828D02*
X148448346Y-128796542D01*
X148448346Y-128796542D02*
X148591203Y-128939400D01*
X148591203Y-128939400D02*
X148734060Y-129010828D01*
X148734060Y-129010828D02*
X149019774Y-129010828D01*
X149019774Y-129010828D02*
X149162632Y-128939400D01*
X149162632Y-128939400D02*
X149305489Y-128796542D01*
X149305489Y-128796542D02*
X149376917Y-128510828D01*
X149376917Y-128510828D02*
X149376917Y-128010828D01*
X149376917Y-128010828D02*
X149305489Y-127725114D01*
X149305489Y-127725114D02*
X149162632Y-127582257D01*
X149162632Y-127582257D02*
X149019774Y-127510828D01*
X147948345Y-127510828D02*
X147448345Y-129010828D01*
X147448345Y-129010828D02*
X146948345Y-127510828D01*
X146519774Y-127653685D02*
X146448346Y-127582257D01*
X146448346Y-127582257D02*
X146305489Y-127510828D01*
X146305489Y-127510828D02*
X145948346Y-127510828D01*
X145948346Y-127510828D02*
X145805489Y-127582257D01*
X145805489Y-127582257D02*
X145734060Y-127653685D01*
X145734060Y-127653685D02*
X145662631Y-127796542D01*
X145662631Y-127796542D02*
X145662631Y-127939400D01*
X145662631Y-127939400D02*
X145734060Y-128153685D01*
X145734060Y-128153685D02*
X146591203Y-129010828D01*
X146591203Y-129010828D02*
X145662631Y-129010828D01*
X144376918Y-127510828D02*
X144662632Y-127510828D01*
X144662632Y-127510828D02*
X144805489Y-127582257D01*
X144805489Y-127582257D02*
X144876918Y-127653685D01*
X144876918Y-127653685D02*
X145019775Y-127867971D01*
X145019775Y-127867971D02*
X145091203Y-128153685D01*
X145091203Y-128153685D02*
X145091203Y-128725114D01*
X145091203Y-128725114D02*
X145019775Y-128867971D01*
X145019775Y-128867971D02*
X144948346Y-128939400D01*
X144948346Y-128939400D02*
X144805489Y-129010828D01*
X144805489Y-129010828D02*
X144519775Y-129010828D01*
X144519775Y-129010828D02*
X144376918Y-128939400D01*
X144376918Y-128939400D02*
X144305489Y-128867971D01*
X144305489Y-128867971D02*
X144234060Y-128725114D01*
X144234060Y-128725114D02*
X144234060Y-128367971D01*
X144234060Y-128367971D02*
X144305489Y-128225114D01*
X144305489Y-128225114D02*
X144376918Y-128153685D01*
X144376918Y-128153685D02*
X144519775Y-128082257D01*
X144519775Y-128082257D02*
X144805489Y-128082257D01*
X144805489Y-128082257D02*
X144948346Y-128153685D01*
X144948346Y-128153685D02*
X145019775Y-128225114D01*
X145019775Y-128225114D02*
X145091203Y-128367971D01*
X142948347Y-128010828D02*
X142948347Y-129010828D01*
X143305489Y-127439400D02*
X143662632Y-128510828D01*
X143662632Y-128510828D02*
X142734061Y-128510828D01*
X141876918Y-127510828D02*
X141734061Y-127510828D01*
X141734061Y-127510828D02*
X141591204Y-127582257D01*
X141591204Y-127582257D02*
X141519776Y-127653685D01*
X141519776Y-127653685D02*
X141448347Y-127796542D01*
X141448347Y-127796542D02*
X141376918Y-128082257D01*
X141376918Y-128082257D02*
X141376918Y-128439400D01*
X141376918Y-128439400D02*
X141448347Y-128725114D01*
X141448347Y-128725114D02*
X141519776Y-128867971D01*
X141519776Y-128867971D02*
X141591204Y-128939400D01*
X141591204Y-128939400D02*
X141734061Y-129010828D01*
X141734061Y-129010828D02*
X141876918Y-129010828D01*
X141876918Y-129010828D02*
X142019776Y-128939400D01*
X142019776Y-128939400D02*
X142091204Y-128867971D01*
X142091204Y-128867971D02*
X142162633Y-128725114D01*
X142162633Y-128725114D02*
X142234061Y-128439400D01*
X142234061Y-128439400D02*
X142234061Y-128082257D01*
X142234061Y-128082257D02*
X142162633Y-127796542D01*
X142162633Y-127796542D02*
X142091204Y-127653685D01*
X142091204Y-127653685D02*
X142019776Y-127582257D01*
X142019776Y-127582257D02*
X141876918Y-127510828D01*
X151845489Y-112576828D02*
X151845489Y-111076828D01*
X150274060Y-112576828D02*
X150774060Y-111862542D01*
X151131203Y-112576828D02*
X151131203Y-111076828D01*
X151131203Y-111076828D02*
X150559774Y-111076828D01*
X150559774Y-111076828D02*
X150416917Y-111148257D01*
X150416917Y-111148257D02*
X150345488Y-111219685D01*
X150345488Y-111219685D02*
X150274060Y-111362542D01*
X150274060Y-111362542D02*
X150274060Y-111576828D01*
X150274060Y-111576828D02*
X150345488Y-111719685D01*
X150345488Y-111719685D02*
X150416917Y-111791114D01*
X150416917Y-111791114D02*
X150559774Y-111862542D01*
X150559774Y-111862542D02*
X151131203Y-111862542D01*
D12*
X144631580Y-110069333D02*
X144679200Y-110021714D01*
X144679200Y-110021714D02*
X144726819Y-109878857D01*
X144726819Y-109878857D02*
X144726819Y-109783619D01*
X144726819Y-109783619D02*
X144679200Y-109640762D01*
X144679200Y-109640762D02*
X144583961Y-109545524D01*
X144583961Y-109545524D02*
X144488723Y-109497905D01*
X144488723Y-109497905D02*
X144298247Y-109450286D01*
X144298247Y-109450286D02*
X144155390Y-109450286D01*
X144155390Y-109450286D02*
X143964914Y-109497905D01*
X143964914Y-109497905D02*
X143869676Y-109545524D01*
X143869676Y-109545524D02*
X143774438Y-109640762D01*
X143774438Y-109640762D02*
X143726819Y-109783619D01*
X143726819Y-109783619D02*
X143726819Y-109878857D01*
X143726819Y-109878857D02*
X143774438Y-110021714D01*
X143774438Y-110021714D02*
X143822057Y-110069333D01*
X143726819Y-110402667D02*
X143726819Y-111069333D01*
X143726819Y-111069333D02*
X144726819Y-110640762D01*
X139017333Y-105626819D02*
X139017333Y-106341104D01*
X139017333Y-106341104D02*
X139064952Y-106483961D01*
X139064952Y-106483961D02*
X139160190Y-106579200D01*
X139160190Y-106579200D02*
X139303047Y-106626819D01*
X139303047Y-106626819D02*
X139398285Y-106626819D01*
X138588761Y-105722057D02*
X138541142Y-105674438D01*
X138541142Y-105674438D02*
X138445904Y-105626819D01*
X138445904Y-105626819D02*
X138207809Y-105626819D01*
X138207809Y-105626819D02*
X138112571Y-105674438D01*
X138112571Y-105674438D02*
X138064952Y-105722057D01*
X138064952Y-105722057D02*
X138017333Y-105817295D01*
X138017333Y-105817295D02*
X138017333Y-105912533D01*
X138017333Y-105912533D02*
X138064952Y-106055390D01*
X138064952Y-106055390D02*
X138636380Y-106626819D01*
X138636380Y-106626819D02*
X138017333Y-106626819D01*
D13*
X137425419Y-125946666D02*
X138139704Y-125946666D01*
X138139704Y-125946666D02*
X138282561Y-125899047D01*
X138282561Y-125899047D02*
X138377800Y-125803809D01*
X138377800Y-125803809D02*
X138425419Y-125660952D01*
X138425419Y-125660952D02*
X138425419Y-125565714D01*
X138425419Y-126470476D02*
X138425419Y-126660952D01*
X138425419Y-126660952D02*
X138377800Y-126756190D01*
X138377800Y-126756190D02*
X138330180Y-126803809D01*
X138330180Y-126803809D02*
X138187323Y-126899047D01*
X138187323Y-126899047D02*
X137996847Y-126946666D01*
X137996847Y-126946666D02*
X137615895Y-126946666D01*
X137615895Y-126946666D02*
X137520657Y-126899047D01*
X137520657Y-126899047D02*
X137473038Y-126851428D01*
X137473038Y-126851428D02*
X137425419Y-126756190D01*
X137425419Y-126756190D02*
X137425419Y-126565714D01*
X137425419Y-126565714D02*
X137473038Y-126470476D01*
X137473038Y-126470476D02*
X137520657Y-126422857D01*
X137520657Y-126422857D02*
X137615895Y-126375238D01*
X137615895Y-126375238D02*
X137853990Y-126375238D01*
X137853990Y-126375238D02*
X137949228Y-126422857D01*
X137949228Y-126422857D02*
X137996847Y-126470476D01*
X137996847Y-126470476D02*
X138044466Y-126565714D01*
X138044466Y-126565714D02*
X138044466Y-126756190D01*
X138044466Y-126756190D02*
X137996847Y-126851428D01*
X137996847Y-126851428D02*
X137949228Y-126899047D01*
X137949228Y-126899047D02*
X137853990Y-126946666D01*
D12*
X145930857Y-85798819D02*
X146264190Y-85322628D01*
X146502285Y-85798819D02*
X146502285Y-84798819D01*
X146502285Y-84798819D02*
X146121333Y-84798819D01*
X146121333Y-84798819D02*
X146026095Y-84846438D01*
X146026095Y-84846438D02*
X145978476Y-84894057D01*
X145978476Y-84894057D02*
X145930857Y-84989295D01*
X145930857Y-84989295D02*
X145930857Y-85132152D01*
X145930857Y-85132152D02*
X145978476Y-85227390D01*
X145978476Y-85227390D02*
X146026095Y-85275009D01*
X146026095Y-85275009D02*
X146121333Y-85322628D01*
X146121333Y-85322628D02*
X146502285Y-85322628D01*
X144978476Y-85798819D02*
X145549904Y-85798819D01*
X145264190Y-85798819D02*
X145264190Y-84798819D01*
X145264190Y-84798819D02*
X145359428Y-84941676D01*
X145359428Y-84941676D02*
X145454666Y-85036914D01*
X145454666Y-85036914D02*
X145549904Y-85084533D01*
X144502285Y-85798819D02*
X144311809Y-85798819D01*
X144311809Y-85798819D02*
X144216571Y-85751200D01*
X144216571Y-85751200D02*
X144168952Y-85703580D01*
X144168952Y-85703580D02*
X144073714Y-85560723D01*
X144073714Y-85560723D02*
X144026095Y-85370247D01*
X144026095Y-85370247D02*
X144026095Y-84989295D01*
X144026095Y-84989295D02*
X144073714Y-84894057D01*
X144073714Y-84894057D02*
X144121333Y-84846438D01*
X144121333Y-84846438D02*
X144216571Y-84798819D01*
X144216571Y-84798819D02*
X144407047Y-84798819D01*
X144407047Y-84798819D02*
X144502285Y-84846438D01*
X144502285Y-84846438D02*
X144549904Y-84894057D01*
X144549904Y-84894057D02*
X144597523Y-84989295D01*
X144597523Y-84989295D02*
X144597523Y-85227390D01*
X144597523Y-85227390D02*
X144549904Y-85322628D01*
X144549904Y-85322628D02*
X144502285Y-85370247D01*
X144502285Y-85370247D02*
X144407047Y-85417866D01*
X144407047Y-85417866D02*
X144216571Y-85417866D01*
X144216571Y-85417866D02*
X144121333Y-85370247D01*
X144121333Y-85370247D02*
X144073714Y-85322628D01*
X144073714Y-85322628D02*
X144026095Y-85227390D01*
X133963580Y-121753333D02*
X134011200Y-121705714D01*
X134011200Y-121705714D02*
X134058819Y-121562857D01*
X134058819Y-121562857D02*
X134058819Y-121467619D01*
X134058819Y-121467619D02*
X134011200Y-121324762D01*
X134011200Y-121324762D02*
X133915961Y-121229524D01*
X133915961Y-121229524D02*
X133820723Y-121181905D01*
X133820723Y-121181905D02*
X133630247Y-121134286D01*
X133630247Y-121134286D02*
X133487390Y-121134286D01*
X133487390Y-121134286D02*
X133296914Y-121181905D01*
X133296914Y-121181905D02*
X133201676Y-121229524D01*
X133201676Y-121229524D02*
X133106438Y-121324762D01*
X133106438Y-121324762D02*
X133058819Y-121467619D01*
X133058819Y-121467619D02*
X133058819Y-121562857D01*
X133058819Y-121562857D02*
X133106438Y-121705714D01*
X133106438Y-121705714D02*
X133154057Y-121753333D01*
X134058819Y-122705714D02*
X134058819Y-122134286D01*
X134058819Y-122420000D02*
X133058819Y-122420000D01*
X133058819Y-122420000D02*
X133201676Y-122324762D01*
X133201676Y-122324762D02*
X133296914Y-122229524D01*
X133296914Y-122229524D02*
X133344533Y-122134286D01*
X140662819Y-66139905D02*
X139662819Y-66139905D01*
X139662819Y-66139905D02*
X139662819Y-66378000D01*
X139662819Y-66378000D02*
X139710438Y-66520857D01*
X139710438Y-66520857D02*
X139805676Y-66616095D01*
X139805676Y-66616095D02*
X139900914Y-66663714D01*
X139900914Y-66663714D02*
X140091390Y-66711333D01*
X140091390Y-66711333D02*
X140234247Y-66711333D01*
X140234247Y-66711333D02*
X140424723Y-66663714D01*
X140424723Y-66663714D02*
X140519961Y-66616095D01*
X140519961Y-66616095D02*
X140615200Y-66520857D01*
X140615200Y-66520857D02*
X140662819Y-66378000D01*
X140662819Y-66378000D02*
X140662819Y-66139905D01*
X139662819Y-67044667D02*
X139662819Y-67663714D01*
X139662819Y-67663714D02*
X140043771Y-67330381D01*
X140043771Y-67330381D02*
X140043771Y-67473238D01*
X140043771Y-67473238D02*
X140091390Y-67568476D01*
X140091390Y-67568476D02*
X140139009Y-67616095D01*
X140139009Y-67616095D02*
X140234247Y-67663714D01*
X140234247Y-67663714D02*
X140472342Y-67663714D01*
X140472342Y-67663714D02*
X140567580Y-67616095D01*
X140567580Y-67616095D02*
X140615200Y-67568476D01*
X140615200Y-67568476D02*
X140662819Y-67473238D01*
X140662819Y-67473238D02*
X140662819Y-67187524D01*
X140662819Y-67187524D02*
X140615200Y-67092286D01*
X140615200Y-67092286D02*
X140567580Y-67044667D01*
X138862819Y-62222095D02*
X137862819Y-62222095D01*
X138862819Y-62793523D02*
X138291390Y-62364952D01*
X137862819Y-62793523D02*
X138434247Y-62222095D01*
X143710819Y-96861333D02*
X143234628Y-96528000D01*
X143710819Y-96289905D02*
X142710819Y-96289905D01*
X142710819Y-96289905D02*
X142710819Y-96670857D01*
X142710819Y-96670857D02*
X142758438Y-96766095D01*
X142758438Y-96766095D02*
X142806057Y-96813714D01*
X142806057Y-96813714D02*
X142901295Y-96861333D01*
X142901295Y-96861333D02*
X143044152Y-96861333D01*
X143044152Y-96861333D02*
X143139390Y-96813714D01*
X143139390Y-96813714D02*
X143187009Y-96766095D01*
X143187009Y-96766095D02*
X143234628Y-96670857D01*
X143234628Y-96670857D02*
X143234628Y-96289905D01*
X142710819Y-97766095D02*
X142710819Y-97289905D01*
X142710819Y-97289905D02*
X143187009Y-97242286D01*
X143187009Y-97242286D02*
X143139390Y-97289905D01*
X143139390Y-97289905D02*
X143091771Y-97385143D01*
X143091771Y-97385143D02*
X143091771Y-97623238D01*
X143091771Y-97623238D02*
X143139390Y-97718476D01*
X143139390Y-97718476D02*
X143187009Y-97766095D01*
X143187009Y-97766095D02*
X143282247Y-97813714D01*
X143282247Y-97813714D02*
X143520342Y-97813714D01*
X143520342Y-97813714D02*
X143615580Y-97766095D01*
X143615580Y-97766095D02*
X143663200Y-97718476D01*
X143663200Y-97718476D02*
X143710819Y-97623238D01*
X143710819Y-97623238D02*
X143710819Y-97385143D01*
X143710819Y-97385143D02*
X143663200Y-97289905D01*
X143663200Y-97289905D02*
X143615580Y-97242286D01*
X150219580Y-64341142D02*
X150267200Y-64293523D01*
X150267200Y-64293523D02*
X150314819Y-64150666D01*
X150314819Y-64150666D02*
X150314819Y-64055428D01*
X150314819Y-64055428D02*
X150267200Y-63912571D01*
X150267200Y-63912571D02*
X150171961Y-63817333D01*
X150171961Y-63817333D02*
X150076723Y-63769714D01*
X150076723Y-63769714D02*
X149886247Y-63722095D01*
X149886247Y-63722095D02*
X149743390Y-63722095D01*
X149743390Y-63722095D02*
X149552914Y-63769714D01*
X149552914Y-63769714D02*
X149457676Y-63817333D01*
X149457676Y-63817333D02*
X149362438Y-63912571D01*
X149362438Y-63912571D02*
X149314819Y-64055428D01*
X149314819Y-64055428D02*
X149314819Y-64150666D01*
X149314819Y-64150666D02*
X149362438Y-64293523D01*
X149362438Y-64293523D02*
X149410057Y-64341142D01*
X149410057Y-64722095D02*
X149362438Y-64769714D01*
X149362438Y-64769714D02*
X149314819Y-64864952D01*
X149314819Y-64864952D02*
X149314819Y-65103047D01*
X149314819Y-65103047D02*
X149362438Y-65198285D01*
X149362438Y-65198285D02*
X149410057Y-65245904D01*
X149410057Y-65245904D02*
X149505295Y-65293523D01*
X149505295Y-65293523D02*
X149600533Y-65293523D01*
X149600533Y-65293523D02*
X149743390Y-65245904D01*
X149743390Y-65245904D02*
X150314819Y-64674476D01*
X150314819Y-64674476D02*
X150314819Y-65293523D01*
X149314819Y-65912571D02*
X149314819Y-66007809D01*
X149314819Y-66007809D02*
X149362438Y-66103047D01*
X149362438Y-66103047D02*
X149410057Y-66150666D01*
X149410057Y-66150666D02*
X149505295Y-66198285D01*
X149505295Y-66198285D02*
X149695771Y-66245904D01*
X149695771Y-66245904D02*
X149933866Y-66245904D01*
X149933866Y-66245904D02*
X150124342Y-66198285D01*
X150124342Y-66198285D02*
X150219580Y-66150666D01*
X150219580Y-66150666D02*
X150267200Y-66103047D01*
X150267200Y-66103047D02*
X150314819Y-66007809D01*
X150314819Y-66007809D02*
X150314819Y-65912571D01*
X150314819Y-65912571D02*
X150267200Y-65817333D01*
X150267200Y-65817333D02*
X150219580Y-65769714D01*
X150219580Y-65769714D02*
X150124342Y-65722095D01*
X150124342Y-65722095D02*
X149933866Y-65674476D01*
X149933866Y-65674476D02*
X149695771Y-65674476D01*
X149695771Y-65674476D02*
X149505295Y-65722095D01*
X149505295Y-65722095D02*
X149410057Y-65769714D01*
X149410057Y-65769714D02*
X149362438Y-65817333D01*
X149362438Y-65817333D02*
X149314819Y-65912571D01*
X154527238Y-112310057D02*
X154622476Y-112262438D01*
X154622476Y-112262438D02*
X154717714Y-112167200D01*
X154717714Y-112167200D02*
X154860571Y-112024342D01*
X154860571Y-112024342D02*
X154955809Y-111976723D01*
X154955809Y-111976723D02*
X155051047Y-111976723D01*
X155003428Y-112214819D02*
X155098666Y-112167200D01*
X155098666Y-112167200D02*
X155193904Y-112071961D01*
X155193904Y-112071961D02*
X155241523Y-111881485D01*
X155241523Y-111881485D02*
X155241523Y-111548152D01*
X155241523Y-111548152D02*
X155193904Y-111357676D01*
X155193904Y-111357676D02*
X155098666Y-111262438D01*
X155098666Y-111262438D02*
X155003428Y-111214819D01*
X155003428Y-111214819D02*
X154812952Y-111214819D01*
X154812952Y-111214819D02*
X154717714Y-111262438D01*
X154717714Y-111262438D02*
X154622476Y-111357676D01*
X154622476Y-111357676D02*
X154574857Y-111548152D01*
X154574857Y-111548152D02*
X154574857Y-111881485D01*
X154574857Y-111881485D02*
X154622476Y-112071961D01*
X154622476Y-112071961D02*
X154717714Y-112167200D01*
X154717714Y-112167200D02*
X154812952Y-112214819D01*
X154812952Y-112214819D02*
X155003428Y-112214819D01*
X153717714Y-111548152D02*
X153717714Y-112214819D01*
X153955809Y-111167200D02*
X154193904Y-111881485D01*
X154193904Y-111881485D02*
X153574857Y-111881485D01*
X145930857Y-78178819D02*
X146264190Y-77702628D01*
X146502285Y-78178819D02*
X146502285Y-77178819D01*
X146502285Y-77178819D02*
X146121333Y-77178819D01*
X146121333Y-77178819D02*
X146026095Y-77226438D01*
X146026095Y-77226438D02*
X145978476Y-77274057D01*
X145978476Y-77274057D02*
X145930857Y-77369295D01*
X145930857Y-77369295D02*
X145930857Y-77512152D01*
X145930857Y-77512152D02*
X145978476Y-77607390D01*
X145978476Y-77607390D02*
X146026095Y-77655009D01*
X146026095Y-77655009D02*
X146121333Y-77702628D01*
X146121333Y-77702628D02*
X146502285Y-77702628D01*
X144978476Y-78178819D02*
X145549904Y-78178819D01*
X145264190Y-78178819D02*
X145264190Y-77178819D01*
X145264190Y-77178819D02*
X145359428Y-77321676D01*
X145359428Y-77321676D02*
X145454666Y-77416914D01*
X145454666Y-77416914D02*
X145549904Y-77464533D01*
X144407047Y-77607390D02*
X144502285Y-77559771D01*
X144502285Y-77559771D02*
X144549904Y-77512152D01*
X144549904Y-77512152D02*
X144597523Y-77416914D01*
X144597523Y-77416914D02*
X144597523Y-77369295D01*
X144597523Y-77369295D02*
X144549904Y-77274057D01*
X144549904Y-77274057D02*
X144502285Y-77226438D01*
X144502285Y-77226438D02*
X144407047Y-77178819D01*
X144407047Y-77178819D02*
X144216571Y-77178819D01*
X144216571Y-77178819D02*
X144121333Y-77226438D01*
X144121333Y-77226438D02*
X144073714Y-77274057D01*
X144073714Y-77274057D02*
X144026095Y-77369295D01*
X144026095Y-77369295D02*
X144026095Y-77416914D01*
X144026095Y-77416914D02*
X144073714Y-77512152D01*
X144073714Y-77512152D02*
X144121333Y-77559771D01*
X144121333Y-77559771D02*
X144216571Y-77607390D01*
X144216571Y-77607390D02*
X144407047Y-77607390D01*
X144407047Y-77607390D02*
X144502285Y-77655009D01*
X144502285Y-77655009D02*
X144549904Y-77702628D01*
X144549904Y-77702628D02*
X144597523Y-77797866D01*
X144597523Y-77797866D02*
X144597523Y-77988342D01*
X144597523Y-77988342D02*
X144549904Y-78083580D01*
X144549904Y-78083580D02*
X144502285Y-78131200D01*
X144502285Y-78131200D02*
X144407047Y-78178819D01*
X144407047Y-78178819D02*
X144216571Y-78178819D01*
X144216571Y-78178819D02*
X144121333Y-78131200D01*
X144121333Y-78131200D02*
X144073714Y-78083580D01*
X144073714Y-78083580D02*
X144026095Y-77988342D01*
X144026095Y-77988342D02*
X144026095Y-77797866D01*
X144026095Y-77797866D02*
X144073714Y-77702628D01*
X144073714Y-77702628D02*
X144121333Y-77655009D01*
X144121333Y-77655009D02*
X144216571Y-77607390D01*
D14*
%TO.C,C7*%
X142902000Y-112856000D02*
X142902000Y-107616000D01*
X143239000Y-107616000D02*
X142902000Y-107616000D01*
X143239000Y-112856000D02*
X142902000Y-112856000D01*
X145642000Y-107616000D02*
X145305000Y-107616000D01*
X145642000Y-112856000D02*
X145305000Y-112856000D01*
X145642000Y-112856000D02*
X145642000Y-107616000D01*
%TO.C,J2*%
X137304000Y-107591000D02*
X140064000Y-107591000D01*
X137304000Y-110241000D02*
X137304000Y-107591000D01*
X137304000Y-110241000D02*
X140064000Y-110241000D01*
X137304000Y-111511000D02*
X137304000Y-112891000D01*
X137304000Y-112891000D02*
X138684000Y-112891000D01*
X140064000Y-110241000D02*
X140064000Y-107591000D01*
%TO.C,J9*%
X136338000Y-118050000D02*
X136338000Y-120650000D01*
X136338000Y-118050000D02*
X159318000Y-118050000D01*
X136338000Y-120650000D02*
X138938000Y-120650000D01*
X136338000Y-121920000D02*
X136338000Y-123250000D01*
X136338000Y-123250000D02*
X137668000Y-123250000D01*
X138938000Y-120650000D02*
X138938000Y-123250000D01*
X138938000Y-123250000D02*
X159318000Y-123250000D01*
X159318000Y-118050000D02*
X159318000Y-123250000D01*
%TO.C,R19*%
X141248000Y-85344000D02*
X142018000Y-85344000D01*
X149328000Y-85344000D02*
X148558000Y-85344000D01*
X148558000Y-83974000D02*
X142018000Y-83974000D01*
X142018000Y-86714000D01*
X148558000Y-86714000D01*
X148558000Y-83974000D01*
%TO.C,C1*%
X132234000Y-124540000D02*
X132234000Y-119300000D01*
X132571000Y-119300000D02*
X132234000Y-119300000D01*
X132571000Y-124540000D02*
X132234000Y-124540000D01*
X134974000Y-119300000D02*
X134637000Y-119300000D01*
X134974000Y-124540000D02*
X134637000Y-124540000D01*
X134974000Y-124540000D02*
X134974000Y-119300000D01*
%TO.C,D3*%
X139088000Y-64774000D02*
X141328000Y-64774000D01*
X139088000Y-64894000D02*
X141328000Y-64894000D01*
X139088000Y-65014000D02*
X141328000Y-65014000D01*
X140208000Y-63524000D02*
X140208000Y-64174000D01*
X140208000Y-69064000D02*
X140208000Y-68414000D01*
X139088000Y-64174000D02*
X141328000Y-64174000D01*
X141328000Y-68414000D01*
X139088000Y-68414000D01*
X139088000Y-64174000D01*
%TO.C,R5*%
X143256000Y-92988000D02*
X143256000Y-93758000D01*
X143256000Y-101068000D02*
X143256000Y-100298000D01*
X141886000Y-93758000D02*
X144626000Y-93758000D01*
X144626000Y-100298000D01*
X141886000Y-100298000D01*
X141886000Y-93758000D01*
%TO.C,C20*%
X148490000Y-62364000D02*
X148490000Y-67604000D01*
X148490000Y-62364000D02*
X148827000Y-62364000D01*
X148490000Y-67604000D02*
X148827000Y-67604000D01*
X150893000Y-62364000D02*
X151230000Y-62364000D01*
X150893000Y-67604000D02*
X151230000Y-67604000D01*
X151230000Y-62364000D02*
X151230000Y-67604000D01*
%TO.C,Q4*%
X146782000Y-104590000D02*
X146782000Y-88720000D01*
X148867000Y-104590000D02*
X148867000Y-107030000D01*
X149837000Y-104590000D02*
X149837000Y-107030000D01*
X151407000Y-104590000D02*
X151407000Y-107030000D01*
X152377000Y-104590000D02*
X152377000Y-107030000D01*
X153947000Y-104590000D02*
X153947000Y-107030000D01*
X154917000Y-104590000D02*
X154917000Y-107030000D01*
X157002000Y-88720000D02*
X146782000Y-88720000D01*
X157002000Y-104590000D02*
X146782000Y-104590000D01*
X157002000Y-104590000D02*
X157002000Y-88720000D01*
%TO.C,R18*%
X141248000Y-77724000D02*
X142018000Y-77724000D01*
X149328000Y-77724000D02*
X148558000Y-77724000D01*
X148558000Y-76354000D02*
X142018000Y-76354000D01*
X142018000Y-79094000D01*
X148558000Y-79094000D01*
X148558000Y-76354000D01*
%TD*%
M02*
