%TF.GenerationSoftware,KiCad,Pcbnew,9.0.2*%
%TF.CreationDate,2026-02-10T20:12:24+01:00*%
%TF.ProjectId,Main,4d61696e-2e6b-4696-9361-645f70636258,rev?*%
%TF.SameCoordinates,Original*%
%TF.FileFunction,Legend,Bot*%
%TF.FilePolarity,Positive*%
%FSLAX46Y46*%
G04 Gerber Fmt 4.6, Leading zero omitted, Abs format (unit mm)*
G04 Created by KiCad (PCBNEW 9.0.2) date 2026-02-10 20:12:24*
%MOMM*%
%LPD*%
G01*
G04 APERTURE LIST*
%ADD10C,0.200000*%
%ADD11C,0.250000*%
%ADD12C,0.300000*%
%ADD13C,0.150000*%
%ADD14C,0.100000*%
%ADD15C,0.120000*%
G04 APERTURE END LIST*
D10*
X131826000Y-117780000D02*
X161544000Y-117780000D01*
X161544000Y-148260000D01*
X131826000Y-148260000D01*
X131826000Y-117780000D01*
X137922000Y-87376000D02*
X157988000Y-87376000D01*
X157988000Y-115570000D01*
X137922000Y-115570000D01*
X137922000Y-87376000D01*
D11*
X159240573Y-144971436D02*
X159288192Y-145019056D01*
X159288192Y-145019056D02*
X159431049Y-145066675D01*
X159431049Y-145066675D02*
X159526287Y-145066675D01*
X159526287Y-145066675D02*
X159669144Y-145019056D01*
X159669144Y-145019056D02*
X159764382Y-144923817D01*
X159764382Y-144923817D02*
X159812001Y-144828579D01*
X159812001Y-144828579D02*
X159859620Y-144638103D01*
X159859620Y-144638103D02*
X159859620Y-144495246D01*
X159859620Y-144495246D02*
X159812001Y-144304770D01*
X159812001Y-144304770D02*
X159764382Y-144209532D01*
X159764382Y-144209532D02*
X159669144Y-144114294D01*
X159669144Y-144114294D02*
X159526287Y-144066675D01*
X159526287Y-144066675D02*
X159431049Y-144066675D01*
X159431049Y-144066675D02*
X159288192Y-144114294D01*
X159288192Y-144114294D02*
X159240573Y-144161913D01*
X158669144Y-145066675D02*
X158764382Y-145019056D01*
X158764382Y-145019056D02*
X158812001Y-144971436D01*
X158812001Y-144971436D02*
X158859620Y-144876198D01*
X158859620Y-144876198D02*
X158859620Y-144590484D01*
X158859620Y-144590484D02*
X158812001Y-144495246D01*
X158812001Y-144495246D02*
X158764382Y-144447627D01*
X158764382Y-144447627D02*
X158669144Y-144400008D01*
X158669144Y-144400008D02*
X158526287Y-144400008D01*
X158526287Y-144400008D02*
X158431049Y-144447627D01*
X158431049Y-144447627D02*
X158383430Y-144495246D01*
X158383430Y-144495246D02*
X158335811Y-144590484D01*
X158335811Y-144590484D02*
X158335811Y-144876198D01*
X158335811Y-144876198D02*
X158383430Y-144971436D01*
X158383430Y-144971436D02*
X158431049Y-145019056D01*
X158431049Y-145019056D02*
X158526287Y-145066675D01*
X158526287Y-145066675D02*
X158669144Y-145066675D01*
X157764382Y-145066675D02*
X157859620Y-145019056D01*
X157859620Y-145019056D02*
X157907239Y-144923817D01*
X157907239Y-144923817D02*
X157907239Y-144066675D01*
X157240572Y-145066675D02*
X157335810Y-145019056D01*
X157335810Y-145019056D02*
X157383429Y-144923817D01*
X157383429Y-144923817D02*
X157383429Y-144066675D01*
X156478667Y-145019056D02*
X156573905Y-145066675D01*
X156573905Y-145066675D02*
X156764381Y-145066675D01*
X156764381Y-145066675D02*
X156859619Y-145019056D01*
X156859619Y-145019056D02*
X156907238Y-144923817D01*
X156907238Y-144923817D02*
X156907238Y-144542865D01*
X156907238Y-144542865D02*
X156859619Y-144447627D01*
X156859619Y-144447627D02*
X156764381Y-144400008D01*
X156764381Y-144400008D02*
X156573905Y-144400008D01*
X156573905Y-144400008D02*
X156478667Y-144447627D01*
X156478667Y-144447627D02*
X156431048Y-144542865D01*
X156431048Y-144542865D02*
X156431048Y-144638103D01*
X156431048Y-144638103D02*
X156907238Y-144733341D01*
X155573905Y-145019056D02*
X155669143Y-145066675D01*
X155669143Y-145066675D02*
X155859619Y-145066675D01*
X155859619Y-145066675D02*
X155954857Y-145019056D01*
X155954857Y-145019056D02*
X156002476Y-144971436D01*
X156002476Y-144971436D02*
X156050095Y-144876198D01*
X156050095Y-144876198D02*
X156050095Y-144590484D01*
X156050095Y-144590484D02*
X156002476Y-144495246D01*
X156002476Y-144495246D02*
X155954857Y-144447627D01*
X155954857Y-144447627D02*
X155859619Y-144400008D01*
X155859619Y-144400008D02*
X155669143Y-144400008D01*
X155669143Y-144400008D02*
X155573905Y-144447627D01*
X155288190Y-144400008D02*
X154907238Y-144400008D01*
X155145333Y-144066675D02*
X155145333Y-144923817D01*
X155145333Y-144923817D02*
X155097714Y-145019056D01*
X155097714Y-145019056D02*
X155002476Y-145066675D01*
X155002476Y-145066675D02*
X154907238Y-145066675D01*
X154192952Y-145019056D02*
X154288190Y-145066675D01*
X154288190Y-145066675D02*
X154478666Y-145066675D01*
X154478666Y-145066675D02*
X154573904Y-145019056D01*
X154573904Y-145019056D02*
X154621523Y-144923817D01*
X154621523Y-144923817D02*
X154621523Y-144542865D01*
X154621523Y-144542865D02*
X154573904Y-144447627D01*
X154573904Y-144447627D02*
X154478666Y-144400008D01*
X154478666Y-144400008D02*
X154288190Y-144400008D01*
X154288190Y-144400008D02*
X154192952Y-144447627D01*
X154192952Y-144447627D02*
X154145333Y-144542865D01*
X154145333Y-144542865D02*
X154145333Y-144638103D01*
X154145333Y-144638103D02*
X154621523Y-144733341D01*
X153288190Y-144400008D02*
X153288190Y-145066675D01*
X153716761Y-144400008D02*
X153716761Y-144923817D01*
X153716761Y-144923817D02*
X153669142Y-145019056D01*
X153669142Y-145019056D02*
X153573904Y-145066675D01*
X153573904Y-145066675D02*
X153431047Y-145066675D01*
X153431047Y-145066675D02*
X153335809Y-145019056D01*
X153335809Y-145019056D02*
X153288190Y-144971436D01*
X152811999Y-145066675D02*
X152811999Y-144400008D01*
X152811999Y-144590484D02*
X152764380Y-144495246D01*
X152764380Y-144495246D02*
X152716761Y-144447627D01*
X152716761Y-144447627D02*
X152621523Y-144400008D01*
X152621523Y-144400008D02*
X152526285Y-144400008D01*
X151002475Y-145066675D02*
X151002475Y-144066675D01*
X151002475Y-145019056D02*
X151097713Y-145066675D01*
X151097713Y-145066675D02*
X151288189Y-145066675D01*
X151288189Y-145066675D02*
X151383427Y-145019056D01*
X151383427Y-145019056D02*
X151431046Y-144971436D01*
X151431046Y-144971436D02*
X151478665Y-144876198D01*
X151478665Y-144876198D02*
X151478665Y-144590484D01*
X151478665Y-144590484D02*
X151431046Y-144495246D01*
X151431046Y-144495246D02*
X151383427Y-144447627D01*
X151383427Y-144447627D02*
X151288189Y-144400008D01*
X151288189Y-144400008D02*
X151097713Y-144400008D01*
X151097713Y-144400008D02*
X151002475Y-144447627D01*
X150145332Y-145019056D02*
X150240570Y-145066675D01*
X150240570Y-145066675D02*
X150431046Y-145066675D01*
X150431046Y-145066675D02*
X150526284Y-145019056D01*
X150526284Y-145019056D02*
X150573903Y-144923817D01*
X150573903Y-144923817D02*
X150573903Y-144542865D01*
X150573903Y-144542865D02*
X150526284Y-144447627D01*
X150526284Y-144447627D02*
X150431046Y-144400008D01*
X150431046Y-144400008D02*
X150240570Y-144400008D01*
X150240570Y-144400008D02*
X150145332Y-144447627D01*
X150145332Y-144447627D02*
X150097713Y-144542865D01*
X150097713Y-144542865D02*
X150097713Y-144638103D01*
X150097713Y-144638103D02*
X150573903Y-144733341D01*
X148478665Y-145066675D02*
X148478665Y-144066675D01*
X148478665Y-145019056D02*
X148573903Y-145066675D01*
X148573903Y-145066675D02*
X148764379Y-145066675D01*
X148764379Y-145066675D02*
X148859617Y-145019056D01*
X148859617Y-145019056D02*
X148907236Y-144971436D01*
X148907236Y-144971436D02*
X148954855Y-144876198D01*
X148954855Y-144876198D02*
X148954855Y-144590484D01*
X148954855Y-144590484D02*
X148907236Y-144495246D01*
X148907236Y-144495246D02*
X148859617Y-144447627D01*
X148859617Y-144447627D02*
X148764379Y-144400008D01*
X148764379Y-144400008D02*
X148573903Y-144400008D01*
X148573903Y-144400008D02*
X148478665Y-144447627D01*
X147859617Y-145066675D02*
X147954855Y-145019056D01*
X147954855Y-145019056D02*
X148002474Y-144971436D01*
X148002474Y-144971436D02*
X148050093Y-144876198D01*
X148050093Y-144876198D02*
X148050093Y-144590484D01*
X148050093Y-144590484D02*
X148002474Y-144495246D01*
X148002474Y-144495246D02*
X147954855Y-144447627D01*
X147954855Y-144447627D02*
X147859617Y-144400008D01*
X147859617Y-144400008D02*
X147716760Y-144400008D01*
X147716760Y-144400008D02*
X147621522Y-144447627D01*
X147621522Y-144447627D02*
X147573903Y-144495246D01*
X147573903Y-144495246D02*
X147526284Y-144590484D01*
X147526284Y-144590484D02*
X147526284Y-144876198D01*
X147526284Y-144876198D02*
X147573903Y-144971436D01*
X147573903Y-144971436D02*
X147621522Y-145019056D01*
X147621522Y-145019056D02*
X147716760Y-145066675D01*
X147716760Y-145066675D02*
X147859617Y-145066675D01*
X147097712Y-144400008D02*
X147097712Y-145066675D01*
X147097712Y-144495246D02*
X147050093Y-144447627D01*
X147050093Y-144447627D02*
X146954855Y-144400008D01*
X146954855Y-144400008D02*
X146811998Y-144400008D01*
X146811998Y-144400008D02*
X146716760Y-144447627D01*
X146716760Y-144447627D02*
X146669141Y-144542865D01*
X146669141Y-144542865D02*
X146669141Y-145066675D01*
X146192950Y-144400008D02*
X146192950Y-145066675D01*
X146192950Y-144495246D02*
X146145331Y-144447627D01*
X146145331Y-144447627D02*
X146050093Y-144400008D01*
X146050093Y-144400008D02*
X145907236Y-144400008D01*
X145907236Y-144400008D02*
X145811998Y-144447627D01*
X145811998Y-144447627D02*
X145764379Y-144542865D01*
X145764379Y-144542865D02*
X145764379Y-145066675D01*
X144907236Y-145019056D02*
X145002474Y-145066675D01*
X145002474Y-145066675D02*
X145192950Y-145066675D01*
X145192950Y-145066675D02*
X145288188Y-145019056D01*
X145288188Y-145019056D02*
X145335807Y-144923817D01*
X145335807Y-144923817D02*
X145335807Y-144542865D01*
X145335807Y-144542865D02*
X145288188Y-144447627D01*
X145288188Y-144447627D02*
X145192950Y-144400008D01*
X145192950Y-144400008D02*
X145002474Y-144400008D01*
X145002474Y-144400008D02*
X144907236Y-144447627D01*
X144907236Y-144447627D02*
X144859617Y-144542865D01*
X144859617Y-144542865D02*
X144859617Y-144638103D01*
X144859617Y-144638103D02*
X145335807Y-144733341D01*
X145002474Y-144019056D02*
X145145331Y-144161913D01*
X144050093Y-145019056D02*
X144145331Y-145066675D01*
X144145331Y-145066675D02*
X144335807Y-145066675D01*
X144335807Y-145066675D02*
X144431045Y-145019056D01*
X144431045Y-145019056D02*
X144478664Y-144923817D01*
X144478664Y-144923817D02*
X144478664Y-144542865D01*
X144478664Y-144542865D02*
X144431045Y-144447627D01*
X144431045Y-144447627D02*
X144335807Y-144400008D01*
X144335807Y-144400008D02*
X144145331Y-144400008D01*
X144145331Y-144400008D02*
X144050093Y-144447627D01*
X144050093Y-144447627D02*
X144002474Y-144542865D01*
X144002474Y-144542865D02*
X144002474Y-144638103D01*
X144002474Y-144638103D02*
X144478664Y-144733341D01*
X143621521Y-145019056D02*
X143526283Y-145066675D01*
X143526283Y-145066675D02*
X143335807Y-145066675D01*
X143335807Y-145066675D02*
X143240569Y-145019056D01*
X143240569Y-145019056D02*
X143192950Y-144923817D01*
X143192950Y-144923817D02*
X143192950Y-144876198D01*
X143192950Y-144876198D02*
X143240569Y-144780960D01*
X143240569Y-144780960D02*
X143335807Y-144733341D01*
X143335807Y-144733341D02*
X143478664Y-144733341D01*
X143478664Y-144733341D02*
X143573902Y-144685722D01*
X143573902Y-144685722D02*
X143621521Y-144590484D01*
X143621521Y-144590484D02*
X143621521Y-144542865D01*
X143621521Y-144542865D02*
X143573902Y-144447627D01*
X143573902Y-144447627D02*
X143478664Y-144400008D01*
X143478664Y-144400008D02*
X143335807Y-144400008D01*
X143335807Y-144400008D02*
X143240569Y-144447627D01*
X141573902Y-145066675D02*
X141573902Y-144542865D01*
X141573902Y-144542865D02*
X141621521Y-144447627D01*
X141621521Y-144447627D02*
X141716759Y-144400008D01*
X141716759Y-144400008D02*
X141907235Y-144400008D01*
X141907235Y-144400008D02*
X142002473Y-144447627D01*
X141573902Y-145019056D02*
X141669140Y-145066675D01*
X141669140Y-145066675D02*
X141907235Y-145066675D01*
X141907235Y-145066675D02*
X142002473Y-145019056D01*
X142002473Y-145019056D02*
X142050092Y-144923817D01*
X142050092Y-144923817D02*
X142050092Y-144828579D01*
X142050092Y-144828579D02*
X142002473Y-144733341D01*
X142002473Y-144733341D02*
X141907235Y-144685722D01*
X141907235Y-144685722D02*
X141669140Y-144685722D01*
X141669140Y-144685722D02*
X141573902Y-144638103D01*
X141097711Y-144400008D02*
X141097711Y-145066675D01*
X141097711Y-144495246D02*
X141050092Y-144447627D01*
X141050092Y-144447627D02*
X140954854Y-144400008D01*
X140954854Y-144400008D02*
X140811997Y-144400008D01*
X140811997Y-144400008D02*
X140716759Y-144447627D01*
X140716759Y-144447627D02*
X140669140Y-144542865D01*
X140669140Y-144542865D02*
X140669140Y-145066675D01*
X140192949Y-145066675D02*
X140192949Y-144400008D01*
X140192949Y-144066675D02*
X140240568Y-144114294D01*
X140240568Y-144114294D02*
X140192949Y-144161913D01*
X140192949Y-144161913D02*
X140145330Y-144114294D01*
X140145330Y-144114294D02*
X140192949Y-144066675D01*
X140192949Y-144066675D02*
X140192949Y-144161913D01*
X139716759Y-145066675D02*
X139716759Y-144400008D01*
X139716759Y-144495246D02*
X139669140Y-144447627D01*
X139669140Y-144447627D02*
X139573902Y-144400008D01*
X139573902Y-144400008D02*
X139431045Y-144400008D01*
X139431045Y-144400008D02*
X139335807Y-144447627D01*
X139335807Y-144447627D02*
X139288188Y-144542865D01*
X139288188Y-144542865D02*
X139288188Y-145066675D01*
X139288188Y-144542865D02*
X139240569Y-144447627D01*
X139240569Y-144447627D02*
X139145331Y-144400008D01*
X139145331Y-144400008D02*
X139002474Y-144400008D01*
X139002474Y-144400008D02*
X138907235Y-144447627D01*
X138907235Y-144447627D02*
X138859616Y-144542865D01*
X138859616Y-144542865D02*
X138859616Y-145066675D01*
X137954855Y-145066675D02*
X137954855Y-144542865D01*
X137954855Y-144542865D02*
X138002474Y-144447627D01*
X138002474Y-144447627D02*
X138097712Y-144400008D01*
X138097712Y-144400008D02*
X138288188Y-144400008D01*
X138288188Y-144400008D02*
X138383426Y-144447627D01*
X137954855Y-145019056D02*
X138050093Y-145066675D01*
X138050093Y-145066675D02*
X138288188Y-145066675D01*
X138288188Y-145066675D02*
X138383426Y-145019056D01*
X138383426Y-145019056D02*
X138431045Y-144923817D01*
X138431045Y-144923817D02*
X138431045Y-144828579D01*
X138431045Y-144828579D02*
X138383426Y-144733341D01*
X138383426Y-144733341D02*
X138288188Y-144685722D01*
X138288188Y-144685722D02*
X138050093Y-144685722D01*
X138050093Y-144685722D02*
X137954855Y-144638103D01*
X137335807Y-145066675D02*
X137431045Y-145019056D01*
X137431045Y-145019056D02*
X137478664Y-144923817D01*
X137478664Y-144923817D02*
X137478664Y-144066675D01*
X136954854Y-145066675D02*
X136954854Y-144400008D01*
X136954854Y-144066675D02*
X137002473Y-144114294D01*
X137002473Y-144114294D02*
X136954854Y-144161913D01*
X136954854Y-144161913D02*
X136907235Y-144114294D01*
X136907235Y-144114294D02*
X136954854Y-144066675D01*
X136954854Y-144066675D02*
X136954854Y-144161913D01*
X136097712Y-145019056D02*
X136192950Y-145066675D01*
X136192950Y-145066675D02*
X136383426Y-145066675D01*
X136383426Y-145066675D02*
X136478664Y-145019056D01*
X136478664Y-145019056D02*
X136526283Y-144923817D01*
X136526283Y-144923817D02*
X136526283Y-144542865D01*
X136526283Y-144542865D02*
X136478664Y-144447627D01*
X136478664Y-144447627D02*
X136383426Y-144400008D01*
X136383426Y-144400008D02*
X136192950Y-144400008D01*
X136192950Y-144400008D02*
X136097712Y-144447627D01*
X136097712Y-144447627D02*
X136050093Y-144542865D01*
X136050093Y-144542865D02*
X136050093Y-144638103D01*
X136050093Y-144638103D02*
X136526283Y-144733341D01*
X136383426Y-144019056D02*
X136240569Y-144161913D01*
X135621521Y-145066675D02*
X135621521Y-144400008D01*
X135621521Y-144590484D02*
X135573902Y-144495246D01*
X135573902Y-144495246D02*
X135526283Y-144447627D01*
X135526283Y-144447627D02*
X135431045Y-144400008D01*
X135431045Y-144400008D02*
X135335807Y-144400008D01*
X134621521Y-145019056D02*
X134716759Y-145066675D01*
X134716759Y-145066675D02*
X134907235Y-145066675D01*
X134907235Y-145066675D02*
X135002473Y-145019056D01*
X135002473Y-145019056D02*
X135050092Y-144923817D01*
X135050092Y-144923817D02*
X135050092Y-144542865D01*
X135050092Y-144542865D02*
X135002473Y-144447627D01*
X135002473Y-144447627D02*
X134907235Y-144400008D01*
X134907235Y-144400008D02*
X134716759Y-144400008D01*
X134716759Y-144400008D02*
X134621521Y-144447627D01*
X134621521Y-144447627D02*
X134573902Y-144542865D01*
X134573902Y-144542865D02*
X134573902Y-144638103D01*
X134573902Y-144638103D02*
X135050092Y-144733341D01*
X134192949Y-145019056D02*
X134097711Y-145066675D01*
X134097711Y-145066675D02*
X133907235Y-145066675D01*
X133907235Y-145066675D02*
X133811997Y-145019056D01*
X133811997Y-145019056D02*
X133764378Y-144923817D01*
X133764378Y-144923817D02*
X133764378Y-144876198D01*
X133764378Y-144876198D02*
X133811997Y-144780960D01*
X133811997Y-144780960D02*
X133907235Y-144733341D01*
X133907235Y-144733341D02*
X134050092Y-144733341D01*
X134050092Y-144733341D02*
X134145330Y-144685722D01*
X134145330Y-144685722D02*
X134192949Y-144590484D01*
X134192949Y-144590484D02*
X134192949Y-144542865D01*
X134192949Y-144542865D02*
X134145330Y-144447627D01*
X134145330Y-144447627D02*
X134050092Y-144400008D01*
X134050092Y-144400008D02*
X133907235Y-144400008D01*
X133907235Y-144400008D02*
X133811997Y-144447627D01*
X148288190Y-146676619D02*
X148621523Y-146200428D01*
X148859618Y-146676619D02*
X148859618Y-145676619D01*
X148859618Y-145676619D02*
X148478666Y-145676619D01*
X148478666Y-145676619D02*
X148383428Y-145724238D01*
X148383428Y-145724238D02*
X148335809Y-145771857D01*
X148335809Y-145771857D02*
X148288190Y-145867095D01*
X148288190Y-145867095D02*
X148288190Y-146009952D01*
X148288190Y-146009952D02*
X148335809Y-146105190D01*
X148335809Y-146105190D02*
X148383428Y-146152809D01*
X148383428Y-146152809D02*
X148478666Y-146200428D01*
X148478666Y-146200428D02*
X148859618Y-146200428D01*
X147859618Y-146152809D02*
X147526285Y-146152809D01*
X147383428Y-146676619D02*
X147859618Y-146676619D01*
X147859618Y-146676619D02*
X147859618Y-145676619D01*
X147859618Y-145676619D02*
X147383428Y-145676619D01*
X147097713Y-145676619D02*
X146764380Y-146676619D01*
X146764380Y-146676619D02*
X146431047Y-145676619D01*
X146145332Y-146390904D02*
X145669142Y-146390904D01*
X146240570Y-146676619D02*
X145907237Y-145676619D01*
X145907237Y-145676619D02*
X145573904Y-146676619D01*
X145288189Y-145771857D02*
X145240570Y-145724238D01*
X145240570Y-145724238D02*
X145145332Y-145676619D01*
X145145332Y-145676619D02*
X144907237Y-145676619D01*
X144907237Y-145676619D02*
X144811999Y-145724238D01*
X144811999Y-145724238D02*
X144764380Y-145771857D01*
X144764380Y-145771857D02*
X144716761Y-145867095D01*
X144716761Y-145867095D02*
X144716761Y-145962333D01*
X144716761Y-145962333D02*
X144764380Y-146105190D01*
X144764380Y-146105190D02*
X145335808Y-146676619D01*
X145335808Y-146676619D02*
X144716761Y-146676619D01*
D12*
X149019774Y-127510828D02*
X148734060Y-127510828D01*
X148734060Y-127510828D02*
X148591203Y-127582257D01*
X148591203Y-127582257D02*
X148448346Y-127725114D01*
X148448346Y-127725114D02*
X148376917Y-128010828D01*
X148376917Y-128010828D02*
X148376917Y-128510828D01*
X148376917Y-128510828D02*
X148448346Y-128796542D01*
X148448346Y-128796542D02*
X148591203Y-128939400D01*
X148591203Y-128939400D02*
X148734060Y-129010828D01*
X148734060Y-129010828D02*
X149019774Y-129010828D01*
X149019774Y-129010828D02*
X149162632Y-128939400D01*
X149162632Y-128939400D02*
X149305489Y-128796542D01*
X149305489Y-128796542D02*
X149376917Y-128510828D01*
X149376917Y-128510828D02*
X149376917Y-128010828D01*
X149376917Y-128010828D02*
X149305489Y-127725114D01*
X149305489Y-127725114D02*
X149162632Y-127582257D01*
X149162632Y-127582257D02*
X149019774Y-127510828D01*
X147948345Y-127510828D02*
X147448345Y-129010828D01*
X147448345Y-129010828D02*
X146948345Y-127510828D01*
X146519774Y-127653685D02*
X146448346Y-127582257D01*
X146448346Y-127582257D02*
X146305489Y-127510828D01*
X146305489Y-127510828D02*
X145948346Y-127510828D01*
X145948346Y-127510828D02*
X145805489Y-127582257D01*
X145805489Y-127582257D02*
X145734060Y-127653685D01*
X145734060Y-127653685D02*
X145662631Y-127796542D01*
X145662631Y-127796542D02*
X145662631Y-127939400D01*
X145662631Y-127939400D02*
X145734060Y-128153685D01*
X145734060Y-128153685D02*
X146591203Y-129010828D01*
X146591203Y-129010828D02*
X145662631Y-129010828D01*
X144376918Y-127510828D02*
X144662632Y-127510828D01*
X144662632Y-127510828D02*
X144805489Y-127582257D01*
X144805489Y-127582257D02*
X144876918Y-127653685D01*
X144876918Y-127653685D02*
X145019775Y-127867971D01*
X145019775Y-127867971D02*
X145091203Y-128153685D01*
X145091203Y-128153685D02*
X145091203Y-128725114D01*
X145091203Y-128725114D02*
X145019775Y-128867971D01*
X145019775Y-128867971D02*
X144948346Y-128939400D01*
X144948346Y-128939400D02*
X144805489Y-129010828D01*
X144805489Y-129010828D02*
X144519775Y-129010828D01*
X144519775Y-129010828D02*
X144376918Y-128939400D01*
X144376918Y-128939400D02*
X144305489Y-128867971D01*
X144305489Y-128867971D02*
X144234060Y-128725114D01*
X144234060Y-128725114D02*
X144234060Y-128367971D01*
X144234060Y-128367971D02*
X144305489Y-128225114D01*
X144305489Y-128225114D02*
X144376918Y-128153685D01*
X144376918Y-128153685D02*
X144519775Y-128082257D01*
X144519775Y-128082257D02*
X144805489Y-128082257D01*
X144805489Y-128082257D02*
X144948346Y-128153685D01*
X144948346Y-128153685D02*
X145019775Y-128225114D01*
X145019775Y-128225114D02*
X145091203Y-128367971D01*
X142948347Y-128010828D02*
X142948347Y-129010828D01*
X143305489Y-127439400D02*
X143662632Y-128510828D01*
X143662632Y-128510828D02*
X142734061Y-128510828D01*
X141876918Y-127510828D02*
X141734061Y-127510828D01*
X141734061Y-127510828D02*
X141591204Y-127582257D01*
X141591204Y-127582257D02*
X141519776Y-127653685D01*
X141519776Y-127653685D02*
X141448347Y-127796542D01*
X141448347Y-127796542D02*
X141376918Y-128082257D01*
X141376918Y-128082257D02*
X141376918Y-128439400D01*
X141376918Y-128439400D02*
X141448347Y-128725114D01*
X141448347Y-128725114D02*
X141519776Y-128867971D01*
X141519776Y-128867971D02*
X141591204Y-128939400D01*
X141591204Y-128939400D02*
X141734061Y-129010828D01*
X141734061Y-129010828D02*
X141876918Y-129010828D01*
X141876918Y-129010828D02*
X142019776Y-128939400D01*
X142019776Y-128939400D02*
X142091204Y-128867971D01*
X142091204Y-128867971D02*
X142162633Y-128725114D01*
X142162633Y-128725114D02*
X142234061Y-128439400D01*
X142234061Y-128439400D02*
X142234061Y-128082257D01*
X142234061Y-128082257D02*
X142162633Y-127796542D01*
X142162633Y-127796542D02*
X142091204Y-127653685D01*
X142091204Y-127653685D02*
X142019776Y-127582257D01*
X142019776Y-127582257D02*
X141876918Y-127510828D01*
X151845489Y-112576828D02*
X151845489Y-111076828D01*
X150274060Y-112576828D02*
X150774060Y-111862542D01*
X151131203Y-112576828D02*
X151131203Y-111076828D01*
X151131203Y-111076828D02*
X150559774Y-111076828D01*
X150559774Y-111076828D02*
X150416917Y-111148257D01*
X150416917Y-111148257D02*
X150345488Y-111219685D01*
X150345488Y-111219685D02*
X150274060Y-111362542D01*
X150274060Y-111362542D02*
X150274060Y-111576828D01*
X150274060Y-111576828D02*
X150345488Y-111719685D01*
X150345488Y-111719685D02*
X150416917Y-111791114D01*
X150416917Y-111791114D02*
X150559774Y-111862542D01*
X150559774Y-111862542D02*
X151131203Y-111862542D01*
D13*
X144631580Y-110069333D02*
X144679200Y-110021714D01*
X144679200Y-110021714D02*
X144726819Y-109878857D01*
X144726819Y-109878857D02*
X144726819Y-109783619D01*
X144726819Y-109783619D02*
X144679200Y-109640762D01*
X144679200Y-109640762D02*
X144583961Y-109545524D01*
X144583961Y-109545524D02*
X144488723Y-109497905D01*
X144488723Y-109497905D02*
X144298247Y-109450286D01*
X144298247Y-109450286D02*
X144155390Y-109450286D01*
X144155390Y-109450286D02*
X143964914Y-109497905D01*
X143964914Y-109497905D02*
X143869676Y-109545524D01*
X143869676Y-109545524D02*
X143774438Y-109640762D01*
X143774438Y-109640762D02*
X143726819Y-109783619D01*
X143726819Y-109783619D02*
X143726819Y-109878857D01*
X143726819Y-109878857D02*
X143774438Y-110021714D01*
X143774438Y-110021714D02*
X143822057Y-110069333D01*
X143726819Y-110402667D02*
X143726819Y-111069333D01*
X143726819Y-111069333D02*
X144726819Y-110640762D01*
X140033333Y-105626819D02*
X140033333Y-106341104D01*
X140033333Y-106341104D02*
X140080952Y-106483961D01*
X140080952Y-106483961D02*
X140176190Y-106579200D01*
X140176190Y-106579200D02*
X140319047Y-106626819D01*
X140319047Y-106626819D02*
X140414285Y-106626819D01*
X139604761Y-105722057D02*
X139557142Y-105674438D01*
X139557142Y-105674438D02*
X139461904Y-105626819D01*
X139461904Y-105626819D02*
X139223809Y-105626819D01*
X139223809Y-105626819D02*
X139128571Y-105674438D01*
X139128571Y-105674438D02*
X139080952Y-105722057D01*
X139080952Y-105722057D02*
X139033333Y-105817295D01*
X139033333Y-105817295D02*
X139033333Y-105912533D01*
X139033333Y-105912533D02*
X139080952Y-106055390D01*
X139080952Y-106055390D02*
X139652380Y-106626819D01*
X139652380Y-106626819D02*
X139033333Y-106626819D01*
D14*
X137425419Y-125946666D02*
X138139704Y-125946666D01*
X138139704Y-125946666D02*
X138282561Y-125899047D01*
X138282561Y-125899047D02*
X138377800Y-125803809D01*
X138377800Y-125803809D02*
X138425419Y-125660952D01*
X138425419Y-125660952D02*
X138425419Y-125565714D01*
X138425419Y-126470476D02*
X138425419Y-126660952D01*
X138425419Y-126660952D02*
X138377800Y-126756190D01*
X138377800Y-126756190D02*
X138330180Y-126803809D01*
X138330180Y-126803809D02*
X138187323Y-126899047D01*
X138187323Y-126899047D02*
X137996847Y-126946666D01*
X137996847Y-126946666D02*
X137615895Y-126946666D01*
X137615895Y-126946666D02*
X137520657Y-126899047D01*
X137520657Y-126899047D02*
X137473038Y-126851428D01*
X137473038Y-126851428D02*
X137425419Y-126756190D01*
X137425419Y-126756190D02*
X137425419Y-126565714D01*
X137425419Y-126565714D02*
X137473038Y-126470476D01*
X137473038Y-126470476D02*
X137520657Y-126422857D01*
X137520657Y-126422857D02*
X137615895Y-126375238D01*
X137615895Y-126375238D02*
X137853990Y-126375238D01*
X137853990Y-126375238D02*
X137949228Y-126422857D01*
X137949228Y-126422857D02*
X137996847Y-126470476D01*
X137996847Y-126470476D02*
X138044466Y-126565714D01*
X138044466Y-126565714D02*
X138044466Y-126756190D01*
X138044466Y-126756190D02*
X137996847Y-126851428D01*
X137996847Y-126851428D02*
X137949228Y-126899047D01*
X137949228Y-126899047D02*
X137853990Y-126946666D01*
D13*
X145930857Y-85798819D02*
X146264190Y-85322628D01*
X146502285Y-85798819D02*
X146502285Y-84798819D01*
X146502285Y-84798819D02*
X146121333Y-84798819D01*
X146121333Y-84798819D02*
X146026095Y-84846438D01*
X146026095Y-84846438D02*
X145978476Y-84894057D01*
X145978476Y-84894057D02*
X145930857Y-84989295D01*
X145930857Y-84989295D02*
X145930857Y-85132152D01*
X145930857Y-85132152D02*
X145978476Y-85227390D01*
X145978476Y-85227390D02*
X146026095Y-85275009D01*
X146026095Y-85275009D02*
X146121333Y-85322628D01*
X146121333Y-85322628D02*
X146502285Y-85322628D01*
X144978476Y-85798819D02*
X145549904Y-85798819D01*
X145264190Y-85798819D02*
X145264190Y-84798819D01*
X145264190Y-84798819D02*
X145359428Y-84941676D01*
X145359428Y-84941676D02*
X145454666Y-85036914D01*
X145454666Y-85036914D02*
X145549904Y-85084533D01*
X144502285Y-85798819D02*
X144311809Y-85798819D01*
X144311809Y-85798819D02*
X144216571Y-85751200D01*
X144216571Y-85751200D02*
X144168952Y-85703580D01*
X144168952Y-85703580D02*
X144073714Y-85560723D01*
X144073714Y-85560723D02*
X144026095Y-85370247D01*
X144026095Y-85370247D02*
X144026095Y-84989295D01*
X144026095Y-84989295D02*
X144073714Y-84894057D01*
X144073714Y-84894057D02*
X144121333Y-84846438D01*
X144121333Y-84846438D02*
X144216571Y-84798819D01*
X144216571Y-84798819D02*
X144407047Y-84798819D01*
X144407047Y-84798819D02*
X144502285Y-84846438D01*
X144502285Y-84846438D02*
X144549904Y-84894057D01*
X144549904Y-84894057D02*
X144597523Y-84989295D01*
X144597523Y-84989295D02*
X144597523Y-85227390D01*
X144597523Y-85227390D02*
X144549904Y-85322628D01*
X144549904Y-85322628D02*
X144502285Y-85370247D01*
X144502285Y-85370247D02*
X144407047Y-85417866D01*
X144407047Y-85417866D02*
X144216571Y-85417866D01*
X144216571Y-85417866D02*
X144121333Y-85370247D01*
X144121333Y-85370247D02*
X144073714Y-85322628D01*
X144073714Y-85322628D02*
X144026095Y-85227390D01*
X133963580Y-121753333D02*
X134011200Y-121705714D01*
X134011200Y-121705714D02*
X134058819Y-121562857D01*
X134058819Y-121562857D02*
X134058819Y-121467619D01*
X134058819Y-121467619D02*
X134011200Y-121324762D01*
X134011200Y-121324762D02*
X133915961Y-121229524D01*
X133915961Y-121229524D02*
X133820723Y-121181905D01*
X133820723Y-121181905D02*
X133630247Y-121134286D01*
X133630247Y-121134286D02*
X133487390Y-121134286D01*
X133487390Y-121134286D02*
X133296914Y-121181905D01*
X133296914Y-121181905D02*
X133201676Y-121229524D01*
X133201676Y-121229524D02*
X133106438Y-121324762D01*
X133106438Y-121324762D02*
X133058819Y-121467619D01*
X133058819Y-121467619D02*
X133058819Y-121562857D01*
X133058819Y-121562857D02*
X133106438Y-121705714D01*
X133106438Y-121705714D02*
X133154057Y-121753333D01*
X134058819Y-122705714D02*
X134058819Y-122134286D01*
X134058819Y-122420000D02*
X133058819Y-122420000D01*
X133058819Y-122420000D02*
X133201676Y-122324762D01*
X133201676Y-122324762D02*
X133296914Y-122229524D01*
X133296914Y-122229524D02*
X133344533Y-122134286D01*
X144172094Y-72590819D02*
X144172094Y-71590819D01*
X144172094Y-71590819D02*
X143933999Y-71590819D01*
X143933999Y-71590819D02*
X143791142Y-71638438D01*
X143791142Y-71638438D02*
X143695904Y-71733676D01*
X143695904Y-71733676D02*
X143648285Y-71828914D01*
X143648285Y-71828914D02*
X143600666Y-72019390D01*
X143600666Y-72019390D02*
X143600666Y-72162247D01*
X143600666Y-72162247D02*
X143648285Y-72352723D01*
X143648285Y-72352723D02*
X143695904Y-72447961D01*
X143695904Y-72447961D02*
X143791142Y-72543200D01*
X143791142Y-72543200D02*
X143933999Y-72590819D01*
X143933999Y-72590819D02*
X144172094Y-72590819D01*
X143267332Y-71590819D02*
X142648285Y-71590819D01*
X142648285Y-71590819D02*
X142981618Y-71971771D01*
X142981618Y-71971771D02*
X142838761Y-71971771D01*
X142838761Y-71971771D02*
X142743523Y-72019390D01*
X142743523Y-72019390D02*
X142695904Y-72067009D01*
X142695904Y-72067009D02*
X142648285Y-72162247D01*
X142648285Y-72162247D02*
X142648285Y-72400342D01*
X142648285Y-72400342D02*
X142695904Y-72495580D01*
X142695904Y-72495580D02*
X142743523Y-72543200D01*
X142743523Y-72543200D02*
X142838761Y-72590819D01*
X142838761Y-72590819D02*
X143124475Y-72590819D01*
X143124475Y-72590819D02*
X143219713Y-72543200D01*
X143219713Y-72543200D02*
X143267332Y-72495580D01*
X150375904Y-72590819D02*
X150375904Y-71590819D01*
X149804476Y-72590819D02*
X150233047Y-72019390D01*
X149804476Y-71590819D02*
X150375904Y-72162247D01*
X143710819Y-96861333D02*
X143234628Y-96528000D01*
X143710819Y-96289905D02*
X142710819Y-96289905D01*
X142710819Y-96289905D02*
X142710819Y-96670857D01*
X142710819Y-96670857D02*
X142758438Y-96766095D01*
X142758438Y-96766095D02*
X142806057Y-96813714D01*
X142806057Y-96813714D02*
X142901295Y-96861333D01*
X142901295Y-96861333D02*
X143044152Y-96861333D01*
X143044152Y-96861333D02*
X143139390Y-96813714D01*
X143139390Y-96813714D02*
X143187009Y-96766095D01*
X143187009Y-96766095D02*
X143234628Y-96670857D01*
X143234628Y-96670857D02*
X143234628Y-96289905D01*
X142710819Y-97766095D02*
X142710819Y-97289905D01*
X142710819Y-97289905D02*
X143187009Y-97242286D01*
X143187009Y-97242286D02*
X143139390Y-97289905D01*
X143139390Y-97289905D02*
X143091771Y-97385143D01*
X143091771Y-97385143D02*
X143091771Y-97623238D01*
X143091771Y-97623238D02*
X143139390Y-97718476D01*
X143139390Y-97718476D02*
X143187009Y-97766095D01*
X143187009Y-97766095D02*
X143282247Y-97813714D01*
X143282247Y-97813714D02*
X143520342Y-97813714D01*
X143520342Y-97813714D02*
X143615580Y-97766095D01*
X143615580Y-97766095D02*
X143663200Y-97718476D01*
X143663200Y-97718476D02*
X143710819Y-97623238D01*
X143710819Y-97623238D02*
X143710819Y-97385143D01*
X143710819Y-97385143D02*
X143663200Y-97289905D01*
X143663200Y-97289905D02*
X143615580Y-97242286D01*
X155582857Y-67669580D02*
X155630476Y-67717200D01*
X155630476Y-67717200D02*
X155773333Y-67764819D01*
X155773333Y-67764819D02*
X155868571Y-67764819D01*
X155868571Y-67764819D02*
X156011428Y-67717200D01*
X156011428Y-67717200D02*
X156106666Y-67621961D01*
X156106666Y-67621961D02*
X156154285Y-67526723D01*
X156154285Y-67526723D02*
X156201904Y-67336247D01*
X156201904Y-67336247D02*
X156201904Y-67193390D01*
X156201904Y-67193390D02*
X156154285Y-67002914D01*
X156154285Y-67002914D02*
X156106666Y-66907676D01*
X156106666Y-66907676D02*
X156011428Y-66812438D01*
X156011428Y-66812438D02*
X155868571Y-66764819D01*
X155868571Y-66764819D02*
X155773333Y-66764819D01*
X155773333Y-66764819D02*
X155630476Y-66812438D01*
X155630476Y-66812438D02*
X155582857Y-66860057D01*
X155201904Y-66860057D02*
X155154285Y-66812438D01*
X155154285Y-66812438D02*
X155059047Y-66764819D01*
X155059047Y-66764819D02*
X154820952Y-66764819D01*
X154820952Y-66764819D02*
X154725714Y-66812438D01*
X154725714Y-66812438D02*
X154678095Y-66860057D01*
X154678095Y-66860057D02*
X154630476Y-66955295D01*
X154630476Y-66955295D02*
X154630476Y-67050533D01*
X154630476Y-67050533D02*
X154678095Y-67193390D01*
X154678095Y-67193390D02*
X155249523Y-67764819D01*
X155249523Y-67764819D02*
X154630476Y-67764819D01*
X154011428Y-66764819D02*
X153916190Y-66764819D01*
X153916190Y-66764819D02*
X153820952Y-66812438D01*
X153820952Y-66812438D02*
X153773333Y-66860057D01*
X153773333Y-66860057D02*
X153725714Y-66955295D01*
X153725714Y-66955295D02*
X153678095Y-67145771D01*
X153678095Y-67145771D02*
X153678095Y-67383866D01*
X153678095Y-67383866D02*
X153725714Y-67574342D01*
X153725714Y-67574342D02*
X153773333Y-67669580D01*
X153773333Y-67669580D02*
X153820952Y-67717200D01*
X153820952Y-67717200D02*
X153916190Y-67764819D01*
X153916190Y-67764819D02*
X154011428Y-67764819D01*
X154011428Y-67764819D02*
X154106666Y-67717200D01*
X154106666Y-67717200D02*
X154154285Y-67669580D01*
X154154285Y-67669580D02*
X154201904Y-67574342D01*
X154201904Y-67574342D02*
X154249523Y-67383866D01*
X154249523Y-67383866D02*
X154249523Y-67145771D01*
X154249523Y-67145771D02*
X154201904Y-66955295D01*
X154201904Y-66955295D02*
X154154285Y-66860057D01*
X154154285Y-66860057D02*
X154106666Y-66812438D01*
X154106666Y-66812438D02*
X154011428Y-66764819D01*
X144377580Y-61841142D02*
X144425200Y-61793523D01*
X144425200Y-61793523D02*
X144472819Y-61650666D01*
X144472819Y-61650666D02*
X144472819Y-61555428D01*
X144472819Y-61555428D02*
X144425200Y-61412571D01*
X144425200Y-61412571D02*
X144329961Y-61317333D01*
X144329961Y-61317333D02*
X144234723Y-61269714D01*
X144234723Y-61269714D02*
X144044247Y-61222095D01*
X144044247Y-61222095D02*
X143901390Y-61222095D01*
X143901390Y-61222095D02*
X143710914Y-61269714D01*
X143710914Y-61269714D02*
X143615676Y-61317333D01*
X143615676Y-61317333D02*
X143520438Y-61412571D01*
X143520438Y-61412571D02*
X143472819Y-61555428D01*
X143472819Y-61555428D02*
X143472819Y-61650666D01*
X143472819Y-61650666D02*
X143520438Y-61793523D01*
X143520438Y-61793523D02*
X143568057Y-61841142D01*
X144472819Y-62793523D02*
X144472819Y-62222095D01*
X144472819Y-62507809D02*
X143472819Y-62507809D01*
X143472819Y-62507809D02*
X143615676Y-62412571D01*
X143615676Y-62412571D02*
X143710914Y-62317333D01*
X143710914Y-62317333D02*
X143758533Y-62222095D01*
X143901390Y-63364952D02*
X143853771Y-63269714D01*
X143853771Y-63269714D02*
X143806152Y-63222095D01*
X143806152Y-63222095D02*
X143710914Y-63174476D01*
X143710914Y-63174476D02*
X143663295Y-63174476D01*
X143663295Y-63174476D02*
X143568057Y-63222095D01*
X143568057Y-63222095D02*
X143520438Y-63269714D01*
X143520438Y-63269714D02*
X143472819Y-63364952D01*
X143472819Y-63364952D02*
X143472819Y-63555428D01*
X143472819Y-63555428D02*
X143520438Y-63650666D01*
X143520438Y-63650666D02*
X143568057Y-63698285D01*
X143568057Y-63698285D02*
X143663295Y-63745904D01*
X143663295Y-63745904D02*
X143710914Y-63745904D01*
X143710914Y-63745904D02*
X143806152Y-63698285D01*
X143806152Y-63698285D02*
X143853771Y-63650666D01*
X143853771Y-63650666D02*
X143901390Y-63555428D01*
X143901390Y-63555428D02*
X143901390Y-63364952D01*
X143901390Y-63364952D02*
X143949009Y-63269714D01*
X143949009Y-63269714D02*
X143996628Y-63222095D01*
X143996628Y-63222095D02*
X144091866Y-63174476D01*
X144091866Y-63174476D02*
X144282342Y-63174476D01*
X144282342Y-63174476D02*
X144377580Y-63222095D01*
X144377580Y-63222095D02*
X144425200Y-63269714D01*
X144425200Y-63269714D02*
X144472819Y-63364952D01*
X144472819Y-63364952D02*
X144472819Y-63555428D01*
X144472819Y-63555428D02*
X144425200Y-63650666D01*
X144425200Y-63650666D02*
X144377580Y-63698285D01*
X144377580Y-63698285D02*
X144282342Y-63745904D01*
X144282342Y-63745904D02*
X144091866Y-63745904D01*
X144091866Y-63745904D02*
X143996628Y-63698285D01*
X143996628Y-63698285D02*
X143949009Y-63650666D01*
X143949009Y-63650666D02*
X143901390Y-63555428D01*
X154527238Y-112310057D02*
X154622476Y-112262438D01*
X154622476Y-112262438D02*
X154717714Y-112167200D01*
X154717714Y-112167200D02*
X154860571Y-112024342D01*
X154860571Y-112024342D02*
X154955809Y-111976723D01*
X154955809Y-111976723D02*
X155051047Y-111976723D01*
X155003428Y-112214819D02*
X155098666Y-112167200D01*
X155098666Y-112167200D02*
X155193904Y-112071961D01*
X155193904Y-112071961D02*
X155241523Y-111881485D01*
X155241523Y-111881485D02*
X155241523Y-111548152D01*
X155241523Y-111548152D02*
X155193904Y-111357676D01*
X155193904Y-111357676D02*
X155098666Y-111262438D01*
X155098666Y-111262438D02*
X155003428Y-111214819D01*
X155003428Y-111214819D02*
X154812952Y-111214819D01*
X154812952Y-111214819D02*
X154717714Y-111262438D01*
X154717714Y-111262438D02*
X154622476Y-111357676D01*
X154622476Y-111357676D02*
X154574857Y-111548152D01*
X154574857Y-111548152D02*
X154574857Y-111881485D01*
X154574857Y-111881485D02*
X154622476Y-112071961D01*
X154622476Y-112071961D02*
X154717714Y-112167200D01*
X154717714Y-112167200D02*
X154812952Y-112214819D01*
X154812952Y-112214819D02*
X155003428Y-112214819D01*
X153717714Y-111548152D02*
X153717714Y-112214819D01*
X153955809Y-111167200D02*
X154193904Y-111881485D01*
X154193904Y-111881485D02*
X153574857Y-111881485D01*
X145930857Y-78178819D02*
X146264190Y-77702628D01*
X146502285Y-78178819D02*
X146502285Y-77178819D01*
X146502285Y-77178819D02*
X146121333Y-77178819D01*
X146121333Y-77178819D02*
X146026095Y-77226438D01*
X146026095Y-77226438D02*
X145978476Y-77274057D01*
X145978476Y-77274057D02*
X145930857Y-77369295D01*
X145930857Y-77369295D02*
X145930857Y-77512152D01*
X145930857Y-77512152D02*
X145978476Y-77607390D01*
X145978476Y-77607390D02*
X146026095Y-77655009D01*
X146026095Y-77655009D02*
X146121333Y-77702628D01*
X146121333Y-77702628D02*
X146502285Y-77702628D01*
X144978476Y-78178819D02*
X145549904Y-78178819D01*
X145264190Y-78178819D02*
X145264190Y-77178819D01*
X145264190Y-77178819D02*
X145359428Y-77321676D01*
X145359428Y-77321676D02*
X145454666Y-77416914D01*
X145454666Y-77416914D02*
X145549904Y-77464533D01*
X144407047Y-77607390D02*
X144502285Y-77559771D01*
X144502285Y-77559771D02*
X144549904Y-77512152D01*
X144549904Y-77512152D02*
X144597523Y-77416914D01*
X144597523Y-77416914D02*
X144597523Y-77369295D01*
X144597523Y-77369295D02*
X144549904Y-77274057D01*
X144549904Y-77274057D02*
X144502285Y-77226438D01*
X144502285Y-77226438D02*
X144407047Y-77178819D01*
X144407047Y-77178819D02*
X144216571Y-77178819D01*
X144216571Y-77178819D02*
X144121333Y-77226438D01*
X144121333Y-77226438D02*
X144073714Y-77274057D01*
X144073714Y-77274057D02*
X144026095Y-77369295D01*
X144026095Y-77369295D02*
X144026095Y-77416914D01*
X144026095Y-77416914D02*
X144073714Y-77512152D01*
X144073714Y-77512152D02*
X144121333Y-77559771D01*
X144121333Y-77559771D02*
X144216571Y-77607390D01*
X144216571Y-77607390D02*
X144407047Y-77607390D01*
X144407047Y-77607390D02*
X144502285Y-77655009D01*
X144502285Y-77655009D02*
X144549904Y-77702628D01*
X144549904Y-77702628D02*
X144597523Y-77797866D01*
X144597523Y-77797866D02*
X144597523Y-77988342D01*
X144597523Y-77988342D02*
X144549904Y-78083580D01*
X144549904Y-78083580D02*
X144502285Y-78131200D01*
X144502285Y-78131200D02*
X144407047Y-78178819D01*
X144407047Y-78178819D02*
X144216571Y-78178819D01*
X144216571Y-78178819D02*
X144121333Y-78131200D01*
X144121333Y-78131200D02*
X144073714Y-78083580D01*
X144073714Y-78083580D02*
X144026095Y-77988342D01*
X144026095Y-77988342D02*
X144026095Y-77797866D01*
X144026095Y-77797866D02*
X144073714Y-77702628D01*
X144073714Y-77702628D02*
X144121333Y-77655009D01*
X144121333Y-77655009D02*
X144216571Y-77607390D01*
D15*
%TO.C,C7*%
X142902000Y-112856000D02*
X142902000Y-107616000D01*
X145642000Y-112856000D02*
X145642000Y-107616000D01*
%TO.C,J2*%
X138320000Y-107591000D02*
X141080000Y-107591000D01*
X138320000Y-110241000D02*
X138320000Y-107591000D01*
X138320000Y-110241000D02*
X141080000Y-110241000D01*
X138320000Y-111511000D02*
X138320000Y-112891000D01*
X138320000Y-112891000D02*
X139700000Y-112891000D01*
X141080000Y-110241000D02*
X141080000Y-107591000D01*
%TO.C,J9*%
X136338000Y-118050000D02*
X136338000Y-120650000D01*
X136338000Y-118050000D02*
X159318000Y-118050000D01*
X136338000Y-120650000D02*
X138938000Y-120650000D01*
X136338000Y-121920000D02*
X136338000Y-123250000D01*
X136338000Y-123250000D02*
X137668000Y-123250000D01*
X138938000Y-120650000D02*
X138938000Y-123250000D01*
X138938000Y-123250000D02*
X159318000Y-123250000D01*
X159318000Y-118050000D02*
X159318000Y-123250000D01*
%TO.C,R19*%
X148558000Y-83974000D02*
X142018000Y-83974000D01*
X142018000Y-86714000D01*
X148558000Y-86714000D01*
X148558000Y-83974000D01*
%TO.C,C1*%
X132234000Y-124540000D02*
X132234000Y-119300000D01*
X134974000Y-124540000D02*
X134974000Y-119300000D01*
%TO.C,D3*%
X145298000Y-71016000D02*
X145298000Y-73256000D01*
X145418000Y-71016000D02*
X145418000Y-73256000D01*
X145538000Y-71016000D02*
X145538000Y-73256000D01*
X146138000Y-71016000D02*
X141898000Y-71016000D01*
X141898000Y-73256000D01*
X146138000Y-73256000D01*
X146138000Y-71016000D01*
%TO.C,R5*%
X141886000Y-93758000D02*
X144626000Y-93758000D01*
X144626000Y-100298000D01*
X141886000Y-100298000D01*
X141886000Y-93758000D01*
%TO.C,C20*%
X153570000Y-65104000D02*
X153570000Y-59864000D01*
X156310000Y-65104000D02*
X156310000Y-59864000D01*
%TO.C,C18*%
X150916000Y-62484000D02*
G75*
G02*
X140676000Y-62484000I-5120000J0D01*
G01*
X140676000Y-62484000D02*
G75*
G02*
X150916000Y-62484000I5120000J0D01*
G01*
%TO.C,Q4*%
X146782000Y-104590000D02*
X146782000Y-88720000D01*
X148867000Y-104590000D02*
X148867000Y-107030000D01*
X149837000Y-104590000D02*
X149837000Y-107030000D01*
X151407000Y-104590000D02*
X151407000Y-107030000D01*
X152377000Y-104590000D02*
X152377000Y-107030000D01*
X153947000Y-104590000D02*
X153947000Y-107030000D01*
X154917000Y-104590000D02*
X154917000Y-107030000D01*
X157002000Y-88720000D02*
X146782000Y-88720000D01*
X157002000Y-104590000D02*
X146782000Y-104590000D01*
X157002000Y-104590000D02*
X157002000Y-88720000D01*
%TO.C,R18*%
X148558000Y-76354000D02*
X142018000Y-76354000D01*
X142018000Y-79094000D01*
X148558000Y-79094000D01*
X148558000Y-76354000D01*
%TD*%
M02*
