M48
; DRILL file {KiCad 9.0.2} date 2026-02-10T20:12:30+0100
; FORMAT={-:-/ absolute / metric / decimal}
; #@! TF.CreationDate,2026-02-10T20:12:30+01:00
; #@! TF.GenerationSoftware,Kicad,Pcbnew,9.0.2
; #@! TF.FileFunction,Plated,1,2,PTH
FMAT,2
METRIC
; #@! TA.AperFunction,Plated,PTH,ViaDrill
T1C0.300
; #@! TA.AperFunction,Plated,PTH,ComponentDrill
T2C0.750
; #@! TA.AperFunction,Plated,PTH,ComponentDrill
T3C0.800
; #@! TA.AperFunction,Plated,PTH,ComponentDrill
T4C0.900
; #@! TA.AperFunction,Plated,PTH,ComponentDrill
T5C1.000
; #@! TA.AperFunction,Plated,PTH,ComponentDrill
T6C1.020
; #@! TA.AperFunction,Plated,PTH,ComponentDrill
T7C1.100
%
G90
G05
T1
X129.286Y-66.802
X130.556Y-66.802
X131.318Y-86.614
X132.588Y-126.746
X132.588Y-127.546
X134.747Y-116.713
X136.719Y-100.61
X137.233Y-75.873
X138.336Y-100.998
X138.777Y-63.96
X139.651Y-114.775
X154.94Y-72.484
X157.226Y-83.312
X157.876Y-81.407
X160.782Y-78.262
X163.322Y-116.332
X168.402Y-108.966
X168.656Y-109.982
T2
X105.41Y-95.25
X105.41Y-96.52
X105.41Y-97.79
X185.09Y-54.28
X185.09Y-55.55
X185.09Y-56.82
T3
X109.22Y-123.238
X109.22Y-125.238
X109.22Y-127.238
X109.22Y-129.238
X121.92Y-123.21
X121.92Y-125.21
X121.92Y-127.21
X121.92Y-129.21
T4
X105.41Y-87.63
X105.41Y-90.17
T5
X103.632Y-65.71
X103.632Y-75.87
X103.886Y-139.192
X104.14Y-81.28
X104.14Y-127.254
X104.14Y-132.254
X109.22Y-55.92
X109.22Y-60.92
X109.22Y-110.16
X111.76Y-110.16
X113.284Y-59.182
X113.284Y-61.722
X113.284Y-64.262
X113.284Y-66.802
X113.284Y-69.342
X113.284Y-71.882
X114.046Y-139.192
X114.3Y-81.28
X114.3Y-91.11
X114.3Y-110.16
X116.84Y-91.11
X116.84Y-110.16
X116.84Y-127.254
X116.84Y-132.254
X116.84Y-144.45
X116.88Y-87.3
X116.92Y-106.35
X118.15Y-139.192
X119.38Y-91.11
X119.38Y-110.16
X119.38Y-144.45
X119.812Y-81.28
X121.88Y-87.3
X121.92Y-91.11
X121.92Y-106.35
X121.92Y-110.16
X121.92Y-144.45
X123.15Y-139.192
X124.46Y-64.262
X124.46Y-66.802
X124.46Y-69.342
X124.46Y-71.882
X129.972Y-81.28
X133.604Y-119.42
X133.604Y-124.42
X137.668Y-119.38
X137.668Y-121.92
X139.7Y-108.971
X139.7Y-111.511
X140.208Y-72.136
X140.208Y-77.724
X140.208Y-85.344
X140.208Y-119.38
X140.208Y-121.92
X142.748Y-119.38
X142.748Y-121.92
X143.256Y-91.948
X143.256Y-102.108
X144.272Y-107.736
X144.272Y-112.736
X145.288Y-119.38
X145.288Y-121.92
X145.796Y-59.984
X145.796Y-64.984
X147.828Y-72.136
X147.828Y-119.38
X147.828Y-121.92
X150.368Y-77.724
X150.368Y-85.344
X150.368Y-119.38
X150.368Y-121.92
X152.908Y-119.38
X152.908Y-121.92
X154.94Y-59.984
X154.94Y-64.984
X155.448Y-119.38
X155.448Y-121.92
X157.988Y-119.38
X157.988Y-121.92
X164.77Y-56.82
X164.77Y-59.36
X164.77Y-61.9
X164.77Y-64.44
X164.77Y-66.98
X164.77Y-69.52
X164.77Y-88.57
X164.77Y-91.11
X164.77Y-93.65
X164.77Y-96.19
X166.04Y-102.54
X166.04Y-107.62
X166.04Y-117.78
X166.116Y-122.174
X166.116Y-129.794
X168.58Y-56.86
X168.58Y-61.86
X169.207Y-91.15
X169.207Y-96.15
X169.93Y-113.97
X172.47Y-124.13
X174.93Y-113.97
X175.006Y-55.626
X175.006Y-65.786
X176.2Y-102.54
X176.24Y-93.65
X176.276Y-81.28
X176.276Y-83.82
X177.47Y-124.13
X179.324Y-106.172
X179.324Y-116.332
X179.832Y-55.55
X179.832Y-65.71
X181.24Y-93.65
X182.88Y-74.6
X182.88Y-84.76
X183.388Y-101.64
X183.388Y-106.64
X185.42Y-124.13
X185.42Y-130.48
X187.452Y-136.652
X187.96Y-101.6
X190.13Y-108.93
X190.13Y-113.93
X191.008Y-54.28
X191.008Y-64.44
X191.44Y-75.91
X191.44Y-80.91
X191.44Y-143.18
X192.96Y-101.6
X193.98Y-87.3
X193.98Y-89.84
X193.98Y-94.742
X193.98Y-97.282
X193.98Y-143.18
X195.072Y-136.652
X195.326Y-59.36
X195.326Y-64.36
X195.58Y-124.13
X195.58Y-130.48
T6
X134.0Y-59.97
X134.0Y-62.51
X134.0Y-65.05
X134.0Y-67.59
X134.0Y-70.13
X134.0Y-72.67
X134.0Y-75.21
X134.0Y-77.75
X134.0Y-80.29
X134.0Y-82.83
X134.0Y-85.37
X134.0Y-87.91
X134.0Y-90.45
X134.0Y-92.99
X134.0Y-95.53
X134.0Y-98.07
X134.0Y-100.61
X134.0Y-103.15
X134.0Y-105.69
X134.0Y-108.23
X134.0Y-110.77
X134.0Y-113.34
X159.43Y-59.97
X159.43Y-62.51
X159.43Y-65.05
X159.43Y-67.59
X159.43Y-70.13
X159.43Y-72.67
X159.43Y-75.21
X159.43Y-77.75
X159.43Y-80.29
X159.43Y-82.83
X159.43Y-85.37
X159.43Y-87.91
X159.43Y-90.45
X159.43Y-92.99
X159.43Y-95.53
X159.43Y-98.07
X159.43Y-100.61
X159.43Y-103.15
X159.43Y-105.69
X159.43Y-108.23
X159.43Y-110.77
X159.43Y-113.31
T7
X105.156Y-55.88
X105.156Y-58.42
X105.156Y-60.96
X149.352Y-108.29
X151.892Y-108.29
X154.432Y-108.29
X185.41Y-63.17
X185.41Y-65.71
X185.41Y-68.25
T5
G00X176.858Y-133.954
M15
G01X178.858Y-133.954
M16
G05
G00X176.858Y-139.954
M15
G01X178.858Y-139.954
M16
G05
G00X182.558Y-137.954
M15
G01X182.558Y-135.954
M16
G05
M30
